<?xml version="1.0" standalone="no"?>
<!DOCTYPE svg PUBLIC "-//W3C//DTD SVG 20010904//EN"
 "http://www.w3.org/TR/2001/REC-SVG-20010904/DTD/svg10.dtd">
<svg version="1.0" xmlns="http://www.w3.org/2000/svg"
 width="498.000000pt" height="214.000000pt" viewBox="0 0 498.000000 214.000000"
 preserveAspectRatio="xMidYMid meet">

<g transform="translate(0.000000,214.000000) scale(0.100000,-0.100000)"
fill="#000000" stroke="none">
<path d="M3130 1070 l0 -480 85 0 85 0 0 145 c0 80 3 145 8 145 4 0 56 -65
117 -145 l110 -145 94 0 93 0 -18 27 c-9 16 -66 95 -126 177 -60 81 -111 153
-114 160 -2 6 48 77 111 159 63 81 115 150 115 152 0 3 -40 5 -89 5 l-90 0
-96 -125 c-53 -69 -100 -125 -105 -125 -6 0 -10 104 -10 265 l0 265 -85 0 -85
0 0 -480z"/>
<path d="M340 1425 l0 -75 130 0 130 0 0 -380 0 -380 90 0 90 0 2 378 3 377
128 3 127 3 0 74 0 75 -350 0 -350 0 0 -75z"/>
<path d="M3837 1493 c-4 -3 -7 -208 -7 -455 l0 -448 90 0 90 0 0 455 0 455
-83 0 c-46 0 -87 -3 -90 -7z"/>
<path d="M4313 1418 l-52 -9 -3 -67 -3 -67 -52 -3 -53 -3 0 -65 0 -64 55 0 55
0 0 -192 c0 -106 5 -210 10 -230 14 -50 55 -97 105 -119 67 -31 191 -23 258
16 16 10 16 14 -5 73 -20 54 -26 62 -43 56 -11 -4 -41 -9 -66 -11 -41 -4 -49
-2 -68 22 -20 26 -21 39 -21 206 l0 179 95 0 95 0 0 65 0 65 -95 0 -95 0 0 80
0 80 -32 -1 c-18 -1 -56 -6 -85 -11z"/>
<path d="M1880 1280 c-58 -12 -159 -62 -188 -93 l-22 -23 35 -52 c20 -29 38
-52 41 -52 2 0 27 16 55 35 76 52 162 70 212 44 29 -16 37 -28 37 -60 0 -38
-27 -57 -106 -74 -229 -52 -284 -95 -284 -223 0 -139 80 -209 230 -200 73 4
128 31 151 75 16 30 25 29 44 -7 22 -42 63 -60 137 -60 87 0 92 5 83 79 -7 58
-8 61 -31 55 -50 -13 -54 3 -54 200 0 99 -5 198 -11 219 -14 50 -60 101 -109
121 -50 20 -161 28 -220 16z m176 -422 c-11 -106 -47 -148 -130 -148 -66 0
-96 26 -96 85 0 56 27 79 114 99 37 9 75 20 84 25 28 16 35 1 28 -61z"/>
<path d="M2643 1280 c-97 -20 -175 -80 -219 -167 -27 -55 -29 -65 -29 -178 0
-108 3 -125 26 -176 54 -114 142 -170 280 -177 143 -7 226 33 283 138 15 28
26 53 24 54 -16 12 -120 66 -127 66 -5 0 -14 -14 -21 -30 -31 -75 -122 -108
-202 -72 -65 28 -93 88 -92 197 0 95 21 148 73 182 64 43 172 24 207 -36 10
-17 23 -31 29 -31 5 0 36 18 68 41 l58 41 -17 27 c-31 48 -66 79 -114 100 -55
24 -166 34 -227 21z"/>
<path d="M1435 1266 c-31 -13 -85 -69 -85 -87 0 -5 -4 -9 -10 -9 -5 0 -10 23
-10 50 l0 50 -80 0 -80 0 0 -340 0 -340 85 0 85 0 0 193 c0 210 7 252 50 300
27 31 32 32 104 32 l76 0 6 35 c3 19 10 52 14 73 7 35 6 39 -17 48 -34 13
-103 11 -138 -5z"/>
</g>
</svg>
